<svg xmlns="http://www.w3.org/2000/svg" viewBox="0 0 64 64" width="64" height="64">
  <defs>
    <linearGradient id="helmetGrad" x1="0%" y1="0%" x2="100%" y2="100%">
      <stop offset="0%" style="stop-color:#f59e0b"/>
      <stop offset="100%" style="stop-color:#d97706"/>
    </linearGradient>
  </defs>
  <ellipse cx="32" cy="48" rx="24" ry="6" fill="#0f172a" opacity="0.2"/>
  <path d="M8 32 C8 16 18 6 32 6 C46 6 56 16 56 32 L56 38 C56 40 54 42 52 42 L12 42 C10 42 8 40 8 38 Z" fill="url(#helmetGrad)"/>
  <path d="M12 42 L12 48 C12 50 14 52 16 52 L48 52 C50 52 52 50 52 48 L52 42 Z" fill="#fbbf24"/>
  <rect x="28" y="28" width="8" height="16" rx="2" fill="#0f172a" opacity="0.3"/>
  <circle cx="20" cy="28" r="3" fill="#0f172a" opacity="0.2"/>
  <circle cx="44" cy="28" r="3" fill="#0f172a" opacity="0.2"/>
</svg>
